# xmcd
#
# Track frame offsets:
#	183
#	10738
#	24588
#	36468
#	53298
#	64820
#	77493
#	91165
#	102923
#	116035
#	125718
#	139855
#	151065
#	163043
#	175523
#	185960
#	198003
#	210305
#	224270
#	235428
#	255770
#	265770
#
# Disc length: 3661
#
# Revision: 1
# Processed by: cddbd v1.5.1PL0 Copyright (c) Steve Scherf et al.
# Submitted via: CDex 1.51
# Normalized: r0:DSETVAR1,TDELIM( - )
#
DISCID=200e4b16
DTITLE=Various Artist - Old Town Blues
DYEAR=1900
DGENRE=Blues
TTITLE0=Sonny Terry and Brownie McGhee - Uncle Bud
TTITLE1=Sonny Terry and Brownie McGhee - Climbing on top of the hill
TTITLE2=Sonny Terry and Brownie McGhee - Sweet sweet woman
TTITLE3=James Wayne - Evil hearted woman
TTITLE4=James Wayne - Rock reel rock
TTITLE5=James Wayne - Where you been
TTITLE6=James Wayne - True blues
TTITLE7=Sonny Terry and Brownie McGhee - Slidin'
TTITLE8=Sonny Terry and Brownie McGhee - Crazy about you baby
TTITLE9=Sonny Terry and Brownie McGhee - Chicken Hop
TTITLE10=Sonny Terry and Brownie McGhee - I need a woman
TTITLE11=Little Willie - Playboy
TTITLE12=Little Willie - Sweet little girl
TTITLE13=Little Willie - Hard luck baby
TTITLE14=Little Willie - Work out
TTITLE15=Sonny Terry and Brownie McGhee - Love's a disease
TTITLE16=Sonny Terry and Brownie McGhee - She loves so easy
TTITLE17=Sonny Terry and Brownie McGhee - Confusion
TTITLE18=Sonny Terry and Brownie McGhee - Reap what you sow
TTITLE19=Bo Gaddy - The things that I used to do
TTITLE20=Willie Dixon - Could I, would I
TTITLE21=Willie Dixon - Ugly girls
EXTD=
EXTT0=
EXTT1=
EXTT2=
EXTT3=
EXTT4=
EXTT5=
EXTT6=
EXTT7=
EXTT8=
EXTT9=
EXTT10=
EXTT11=
EXTT12=
EXTT13=
EXTT14=
EXTT15=
EXTT16=
EXTT17=
EXTT18=
EXTT19=
EXTT20=
EXTT21=
PLAYORDER=
